<?xml version="1.0" encoding="utf-8"?>
<!-- Generator: Adobe Illustrator 17.0.1, SVG Export Plug-In . SVG Version: 6.00 Build 0)  -->
<!DOCTYPE svg PUBLIC "-//W3C//DTD SVG 1.0//EN" "http://www.w3.org/TR/2001/REC-SVG-20010904/DTD/svg10.dtd">
<svg version="1.0" id="Layer_1" xmlns="http://www.w3.org/2000/svg" xmlns:xlink="http://www.w3.org/1999/xlink" x="0px" y="0px"
	 width="40px" height="40px" viewBox="0 0 40 40" enable-background="new 0 0 40 40" xml:space="preserve">
<g>
	<g>
		<path d="M29.72,8l4.951,4.951L15.622,32L5.329,21.708l4.951-4.951l5.342,5.341L29.72,8 M29.72,4c-1.061,0-2.078,0.421-2.828,1.172
			l-11.27,11.27l-2.513-2.513c-0.75-0.75-1.768-1.172-2.828-1.172c0,0,0,0,0,0c-1.061,0-2.078,0.421-2.828,1.172l-4.951,4.951
			c-1.562,1.562-1.562,4.095,0,5.657l10.292,10.292C13.574,35.609,14.598,36,15.622,36c1.024,0,2.047-0.39,2.828-1.172
			l19.049-19.049c1.562-1.562,1.562-4.095,0-5.657l-4.951-4.951C31.798,4.421,30.781,4,29.72,4L29.72,4z"/>
	</g>
</g>
</svg>
