<?xml version="1.0" encoding="utf-8"?>
<!-- Generator: Adobe Illustrator 17.0.1, SVG Export Plug-In . SVG Version: 6.00 Build 0)  -->
<!DOCTYPE svg PUBLIC "-//W3C//DTD SVG 1.0//EN" "http://www.w3.org/TR/2001/REC-SVG-20010904/DTD/svg10.dtd">
<svg version="1.0" id="Layer_1" xmlns="http://www.w3.org/2000/svg" xmlns:xlink="http://www.w3.org/1999/xlink" x="0px" y="0px"
	 width="40px" height="40px" viewBox="0 0 40 40" enable-background="new 0 0 40 40" xml:space="preserve">
<g>
	<g>
		<path d="M28.782,5l6.219,6.219L26.221,20l8.781,8.781L28.782,35l-8.781-8.781L11.218,35l-6.219-6.219L13.779,20l-8.781-8.781
			L11.218,5l8.783,8.781L28.782,5 M28.782,1c-1.024,0-2.047,0.391-2.828,1.172l-5.953,5.953l-5.955-5.953
			C13.265,1.39,12.242,1,11.218,1C10.194,1,9.171,1.391,8.39,2.172L2.17,8.391c-0.75,0.75-1.172,1.768-1.172,2.828
			s0.421,2.078,1.172,2.828L8.122,20L2.17,25.952c-0.75,0.75-1.172,1.768-1.172,2.828c0,1.061,0.421,2.078,1.172,2.828l6.219,6.219
			C9.171,38.609,10.195,39,11.218,39s2.047-0.39,2.828-1.171l5.955-5.953l5.953,5.953C26.734,38.609,27.758,39,28.782,39
			c1.024,0,2.047-0.391,2.828-1.172l6.219-6.219c0.75-0.75,1.172-1.768,1.172-2.828c0-1.061-0.421-2.078-1.172-2.828L31.878,20
			l5.952-5.952c0.75-0.75,1.172-1.768,1.172-2.828S38.58,9.141,37.83,8.391L31.61,2.172C30.829,1.391,29.806,1,28.782,1L28.782,1z"
			/>
	</g>
</g>
</svg>
